<svg id="Layer_1" data-name="Layer 1" xmlns="http://www.w3.org/2000/svg" xmlns:xlink="http://www.w3.org/1999/xlink" viewBox="0 0 512 512"><defs><linearGradient id="linear-gradient" x1="77.44" y1="256" x2="434.56" y2="256" gradientUnits="userSpaceOnUse"><stop offset="0.49" stop-color="#fff"/><stop offset="0.5" stop-color="#d1d1d1"/></linearGradient></defs><title>airplane-flat</title><circle cx="256" cy="256" r="240.92" fill="#e0dfb1"/><circle cx="256" cy="256" r="240.92" fill="#e0dfb1"/><path d="M256,15.08c133.06,0,240.92,107.86,240.92,240.92S389.06,496.92,256,496.92,15.08,389.06,15.08,256,122.94,15.08,256,15.08M256,0C114.84,0,0,114.84,0,256S114.84,512,256,512,512,397.16,512,256,397.16,0,256,0Z" fill="#fff"/><path d="M280,104.25l-23.74,292-35.09,27.57,81.27,68.61A241.09,241.09,0,0,0,493.83,294.47Z" fill="#c2c199"/><path d="M271.37,391.66l8.7-90.89s.94-11.29,2.31-27.83H434.56l-6.66-19.15c-1.82-5.18-7.56-10.63-12.83-12.16L287.89,204.76c2.3-29.19,4.2-55,4.2-60.36,0-13.37-13.37-57.48-36.09-57.48S219.91,131,219.91,144.4c0,5.31,1.91,31.17,4.2,60.36L96.94,241.64c-5.28,1.53-11,7-12.83,12.16l-6.67,19.15H229.63c1.36,16.53,2.32,27.83,2.32,27.83l8.69,90.89L222,415.59c-4.08,5.24-2,9.49,4.63,9.49L256,415l29.4,10.05c6.65,0,8.72-4.24,4.63-9.49Z" fill="url(#linear-gradient)"/></svg>