<svg xmlns="http://www.w3.org/2000/svg" viewBox="0 0 512 512"><title>passport-flat</title><g style="isolation:isolate"><g id="Layer_1" data-name="Layer 1"><path d="M496.92,256c0,133.06-107.86,240.92-240.92,240.92S15.08,389.06,15.08,256,122.95,15.08,256,15.08,496.92,122.94,496.92,256Z" fill="#b0d0df"/><path d="M496.92,256c0,133.06-107.86,240.92-240.92,240.92S15.08,389.06,15.08,256,122.95,15.08,256,15.08,496.92,122.94,496.92,256Z" fill="#e0dfb1"/><path d="M256,15.08c133.06,0,240.92,107.86,240.92,240.92S389.06,496.92,256,496.92,15.08,389.06,15.08,256,122.95,15.08,256,15.08M256,0C114.84,0,0,114.84,0,256S114.84,512,256,512,512,397.16,512,256,397.16,0,256,0Z" fill="#fff"/><path d="M225,183v-6.44a9.22,9.22,0,0,1,9.22-9.22h43.53a9.23,9.23,0,0,1,9.23,9.22V183H297v-6.44a19.3,19.3,0,0,0-19.28-19.27H234.23A19.29,19.29,0,0,0,215,176.56V183Z" fill="#fff"/><path d="M277.77,157.29H256v10.05h21.76a9.23,9.23,0,0,1,9.23,9.22V183H297v-6.44A19.3,19.3,0,0,0,277.77,157.29Z" fill="#d1d1d1" style="mix-blend-mode:multiply"/><path d="M494.59,262.55q-.64-.68-1.32-1.32t-1.32-1.32q-.64-.68-1.32-1.32t-1.32-1.32q-.64-.68-1.32-1.32t-1.32-1.32q-.64-.68-1.32-1.32T484,252q-.64-.68-1.32-1.32t-1.32-1.32q-.64-.68-1.32-1.32t-1.32-1.32q-.64-.68-1.32-1.32T476.06,244q-.64-.68-1.32-1.32t-1.32-1.32q-.64-.68-1.32-1.32t-1.32-1.32q-.64-.68-1.32-1.32t-1.32-1.32q-.64-.68-1.32-1.32t-1.32-1.32q-.64-.68-1.32-1.32t-1.32-1.32q-.64-.68-1.32-1.32t-1.32-1.32q-.64-.68-1.32-1.32t-1.32-1.32q-.64-.68-1.32-1.32t-1.32-1.32q-.64-.68-1.32-1.32t-1.32-1.32q-.64-.68-1.32-1.32t-1.32-1.32q-.64-.68-1.32-1.32t-1.32-1.32q-.64-.68-1.32-1.32t-1.32-1.32q-.64-.68-1.32-1.32t-1.32-1.32q-.64-.68-1.32-1.32T439,207q-.64-.68-1.32-1.32t-1.32-1.32q-.64-.68-1.32-1.32t-1.32-1.32q-.64-.68-1.32-1.32T431.06,199q-.64-.68-1.32-1.32t-1.32-1.32q-.64-.68-1.32-1.32t-1.32-1.32q-.64-.68-1.32-1.32t-1.32-1.32q-.64-.68-1.32-1.32t-1.32-1.32q-.64-.68-1.32-1.32t-1.32-1.32q-.64-.68-1.32-1.32t-1.32-1.32q-.64-.68-1.32-1.32t-1.32-1.32q-.64-.68-1.32-1.32t-1.32-1.32q-.64-.68-1.32-1.32t-1.32-1.32q-.64-.68-1.32-1.32t-1.32-1.32q-.64-.68-1.32-1.32t-1.32-1.32q-.64-.68-1.32-1.32t-1.32-1.32q-.64-.68-1.32-1.32t-1.32-1.32q-.64-.68-1.32-1.32T394,162q-.64-.68-1.32-1.32t-1.32-1.32q-.64-.68-1.32-1.32t-1.32-1.32q-.64-.68-1.32-1.32T386.06,154q-.64-.68-1.32-1.32t-1.32-1.32q-.64-.68-1.32-1.32t-1.32-1.32q-.64-.68-1.32-1.32t-1.32-1.32q-.64-.68-1.32-1.32t-1.32-1.32q-.64-.68-1.32-1.32t-1.32-1.32q-.64-.68-1.32-1.32t-1.32-1.32q-.64-.68-1.32-1.32t-1.32-1.32q-.64-.68-1.32-1.32t-1.32-1.32q-.64-.68-1.32-1.32t-1.32-1.32q-.64-.68-1.32-1.32t-1.32-1.32q-.64-.68-1.32-1.32t-1.32-1.32q-.64-.68-1.32-1.32t-1.32-1.32a27.51,27.51,0,0,0-20.16-8.76H177.85a27.57,27.57,0,0,0-27.58,27.58V370.91A27.51,27.51,0,0,0,159,391.07q.64.68,1.32,1.32t1.32,1.32q.64.68,1.32,1.32t1.32,1.32q.64.68,1.32,1.32T167,399q.64.68,1.32,1.32t1.32,1.32q.64.68,1.32,1.32t1.32,1.32q.64.68,1.32,1.32t1.32,1.32q.64.68,1.32,1.32t1.32,1.32q.64.68,1.32,1.32t1.32,1.32q.64.68,1.32,1.32t1.32,1.32q.64.68,1.32,1.32t1.32,1.32q.64.68,1.32,1.32t1.32,1.32q.64.68,1.32,1.32t1.32,1.32q.64.68,1.32,1.32t1.32,1.32q.64.68,1.32,1.32t1.32,1.32q.64.68,1.32,1.32t1.32,1.32q.64.68,1.32,1.32t1.32,1.32q.64.68,1.32,1.32t1.32,1.32q.64.68,1.32,1.32t1.32,1.32q.64.68,1.32,1.32t1.32,1.32q.64.68,1.32,1.32T212,444q.64.68,1.32,1.32t1.32,1.32q.64.68,1.32,1.32t1.32,1.32q.64.68,1.32,1.32t1.32,1.32q.64.68,1.32,1.32t1.32,1.32q.64.68,1.32,1.32t1.32,1.32q.64.68,1.32,1.32t1.32,1.32q.64.68,1.32,1.32t1.32,1.32q.64.68,1.32,1.32t1.32,1.32q.64.68,1.32,1.32t1.32,1.32q.64.68,1.32,1.32t1.32,1.32q.64.68,1.32,1.32t1.32,1.32q.64.68,1.32,1.32t1.32,1.32q.64.68,1.32,1.32t1.32,1.32q.64.68,1.32,1.32t1.32,1.32q.64.68,1.32,1.32t1.32,1.32q.64.68,1.32,1.32t1.32,1.32q.64.68,1.32,1.32T257,489q.64.68,1.32,1.32t1.32,1.32q.64.68,1.32,1.32t1.32,1.32q.64.68,1.32,1.32c.36.38.73.75,1.12,1.12,126.13-4.48,227.55-105.9,232-232-.28-.28-.55-.57-.84-.84Q495.27,263.19,494.59,262.55Z" fill="#c2c199"/><path d="M361.72,370.91a27.59,27.59,0,0,1-27.59,27.59H177.85a27.58,27.58,0,0,1-27.58-27.59V141.08a27.57,27.57,0,0,1,27.58-27.58H334.13a27.58,27.58,0,0,1,27.59,27.58Z" fill="#fff"/><path d="M256,113.5h78.13a27.58,27.58,0,0,1,27.59,27.58V370.91a27.59,27.59,0,0,1-27.59,27.59H256" fill="#d1d1d1"/><path d="M170.24,324.17a33.14,33.14,0,0,1,7.46-.73c3.57,0,6.19,1,7.9,2.85a11.39,11.39,0,0,1,2.61,7.71,12.5,12.5,0,0,1-2.29,7.92,11.75,11.75,0,0,1-10.83,3.51v13.15h-4.85Zm4.85,16.24a7.23,7.23,0,0,0,2.38.27c3.65,0,5.87-2.33,5.87-6.43,0-3.87-2.06-5.95-5.44-5.95a11.25,11.25,0,0,0-2.81.3Z" fill="#c2c199"/><path d="M195,348.69l-2.31,9.88h-5l8.57-34.87h6.23l8.69,34.87h-5.24l-2.42-9.88Zm7.66-4.81-2.1-8.59c-.52-2.11-1-4.5-1.35-6.51h-.08c-.41,2-.8,4.45-1.27,6.51l-2.06,8.59Z" fill="#c2c199"/><path d="M214.74,351.64a11.28,11.28,0,0,0,6.48,2.22c3.13,0,4.88-1.91,4.88-4.76,0-2.63-1.34-4.18-4.76-5.8-4.41-2.06-7.22-5.13-7.22-10.13,0-5.69,3.64-10,9.44-10A11.46,11.46,0,0,1,230,324.9L228.79,330a9.34,9.34,0,0,0-5.32-1.65,4.12,4.12,0,0,0-4.45,4.19c0,2.69,1.55,3.92,5.11,5.74,4.66,2.27,6.92,5.32,6.92,10.34,0,5.59-3.25,10.5-10.15,10.5a12.88,12.88,0,0,1-7.22-2.22Z" fill="#c2c199"/><path d="M235.35,351.64a11.21,11.21,0,0,0,6.47,2.22c3.13,0,4.86-1.91,4.86-4.76,0-2.63-1.34-4.18-4.75-5.8-4.41-2.06-7.23-5.13-7.23-10.13,0-5.69,3.66-10,9.45-10a11.49,11.49,0,0,1,6.43,1.76L249.4,330a9.36,9.36,0,0,0-5.31-1.65,4.11,4.11,0,0,0-4.46,4.19c0,2.69,1.55,3.92,5.11,5.74,4.66,2.27,6.91,5.32,6.91,10.34,0,5.59-3.25,10.5-10.16,10.5a13,13,0,0,1-7.22-2.22Z" fill="#c2c199"/><path d="M256.08,324.17a33,33,0,0,1,7.45-.73c3.58,0,6.2,1,7.9,2.85A11.39,11.39,0,0,1,274,334a12.54,12.54,0,0,1-2.31,7.92,10.26,10.26,0,0,1-8.45,3.73,10.44,10.44,0,0,1-2.39-.22v13.15h-4.83Zm4.83,16.24a7.36,7.36,0,0,0,2.39.27c3.65,0,5.87-2.33,5.87-6.43,0-3.87-2.05-5.95-5.43-5.95a11.4,11.4,0,0,0-2.83.3Z" fill="#c2c199"/><path d="M302,340.77c0,11.7-5.44,18.37-12.81,18.37-7.55,0-12.31-7.5-12.31-17.74,0-10.72,5.17-18.27,12.71-18.27C297.37,323.14,302,330.84,302,340.77Zm-20,.52c0,7.08,2.74,12.78,7.42,12.78s7.38-5.74,7.38-13c0-6.58-2.48-12.83-7.38-12.83S282,334.1,282,341.29Z" fill="#c2c199"/><path d="M306.22,324.17a36.19,36.19,0,0,1,7.37-.73c3.86,0,6.47.83,8.25,2.8a10.27,10.27,0,0,1,2.3,7c0,4.49-2.34,7.55-4.83,8.73v.18c1.92.92,3.06,3.35,3.73,6.71a88.48,88.48,0,0,0,2.11,9.73h-5a61.54,61.54,0,0,1-1.78-8.22c-.75-4.56-2-6-4.8-6.11H311v14.33h-4.83ZM311,339.59h2.9c3.3,0,5.36-2.27,5.36-5.74,0-3.83-2.06-5.59-5.24-5.59a11.07,11.07,0,0,0-3,.31Z" fill="#c2c199"/><path d="M334.11,329h-7.62V323.7h20.21V329H339v29.53h-4.9Z" fill="#c2c199"/><path d="M266.31,231.38c2.15,1.57,2,4.76,1.43,6.8-.61,2.35-1.8,2.21-3.53,4.08-2.31,2.48-.48,2.92.24,5.53.54,2-.89,3.38-.64,5.16-3.36-.17-5.29.88-7,3.46-1.31,2-.78,3.29-1.5,5.45-1.53.8-2.48,2.45-4.05,3.31-2,1.09-5.08,1.35-6.74,2.88-2.27,2.11-.39,4.39.89,6.4.38.61,3.16,6.45,1.18,6.56-3.1.18-6.25-.11-8.23-2.71a8,8,0,0,1-2-6.18,24,24,0,0,0-.26-7.87c-.83-3.09-2.85-4.45-2.36-8.06.31-2.2,1.25-4,1.31-6.37.1-3.34-3.27-4.38-5.64-6.41s-5.55-4.31-6.13-7.48c-.45-2.5.53-4.71,1.28-6.94a17.71,17.71,0,0,0,.67-6.88c-1.67-.29-3.45,0-5.08-.54a2.36,2.36,0,0,1-1.53-1.45c-.41-.88-1.24-1.58-1.38-2.57a5,5,0,0,1,0-.69c0-.33-.1-.29-.22-.53-.31-.68-.1-1-.78-1.43a17.46,17.46,0,0,0-1.83-1.09c-2.31-1-5.29.23-7.63-.85a18.55,18.55,0,0,1-5-4.36c-1.5-1.83-1.4-4.22-2.62-5.93s-3.43-2-4.59-4.24-1.27-3.74-3.48-5.57a5.63,5.63,0,0,1-1.6-1.78,70.14,70.14,0,0,1,36.66-37.92,3.27,3.27,0,0,1,.66,1.69c0,1.05-1.37,1.55-.63,2.55.58.78,2.15.5,3,.52.29,1.29-.9,1.41-1.53,2.11-1.5.1-6.43-.6-7.16.69-1.72,3,3.95,2.83,5.45,2.61,2.25-.31,4-1.76,6.11-2.44a13.84,13.84,0,0,1,4.59-.46,6.63,6.63,0,0,1,2.29.11c.47.28.34,1.05.22,1.63-.4,1.89-1,2.64-3,2.92-1.81.25-3.78.36-5.38,1.78-3.2,2.8-.9,10,4.05,8-.2-2.06.8-2.52,2.22-3.45s2.72-2.53,4.3-3.48a8.33,8.33,0,0,1,5.06-.64c2.17.32,1.46,1,2.77,2.23,1,1,2.37.88,3.74,1.68a18.63,18.63,0,0,1,3.65,3.31c1.25,1.26,2.35,3.49.75,4.93-.69.61-2.31,1.36-3.07.68-.53-.45-.2-1.34-.53-1.93a3.88,3.88,0,0,0-1.38-1.38c-1.13-.57-2.29-1-3.1.32s.92,2.65.15,4a2,2,0,0,1-1.82.82c-.39,0-.8,0-1.2,0a5.56,5.56,0,0,1-.57-.05c-.2,0-.43-.16-.61,0s0,.43,0,.69-.26.49-.45.66a6.15,6.15,0,0,1-2.54,1.15,11.56,11.56,0,0,1-1.47.27c-.22,0-.45,0-.66.06a.92.92,0,0,0-.52.36l0,0a1.48,1.48,0,0,0-.41.64,5.3,5.3,0,0,1-.08.71,1.06,1.06,0,0,0-.1.25,1.09,1.09,0,0,1,0,.2,4.67,4.67,0,0,1-.38.67,2.9,2.9,0,0,1-.59.84c-1.08,1.17-2.71,1.69-4.11,2.35s-2.74,1.38-3.07,2.86c-.2,1,.17,2-.16,2.93-.39,1.11-1.32,1.34-1.8,2.24-.59,1.07-.95,2.56-2.1,3.17a3.08,3.08,0,0,1-2.26.12,2.66,2.66,0,0,1-1.91-1.94,17.66,17.66,0,0,1-.73-3.45c-5.58-.25-16-.16-13.46,8.24.37,1.19,1.22,3.27,2.14,3.75,1.77.93,4.11-.59,5.92-.7,1.38-.09,5.25-.69,4.85,1.09-.22.93-2.65,2.2-3.53,2.2-.11,2.07,3.39,3.36,4.76,4.45,1.73,1.38,2.81,2.55,5.22,1.78a28.84,28.84,0,0,1,10.46-1.26c5.69.27,6.14,4.57,9.08,8.29,2.08,2.64,5.29,3.33,8.48,4.38a62,62,0,0,0,6.42,2C263.55,231.2,265.26,230.62,266.31,231.38Zm23.75-74.46a69.63,69.63,0,0,0-35.59-9.71,68.93,68.93,0,0,0-7.83.43c.1.6.17,1.21.22,1.75a8.24,8.24,0,0,1,0,3c-.4,1-1.4,1-2.12,1.8-1,1.11-1,3.39-.88,4.91,1.32.41,2.55.42,3.66,1.13a7.24,7.24,0,0,1,2.45,3.27c.87,1.83.75,2,3,2.18,1.67.11,2.85.32,3.66-1.15,1.94-3.53-3-4.88-4.74-6.7a3.29,3.29,0,0,1,3-5.61c1.14,4.13,7.16,1.53,9.82,3.5,3.69,2.71-.34,7.8,1.73,10.83.94,1.37,3.64,1.06,4.76.43,2.34-1.33,1.22-2.74,2-4.57,1-2.35,8.07-.78,10.64-1.32A9.11,9.11,0,0,0,290.06,156.92ZM300.59,176a4.72,4.72,0,0,1-.37,2.81c-.45.76-2.17,1.15-2.38,1.76-.75,2.12,3,.66,4.1,2.36-2.12,1.51-4.69,3.51-7.17,4.16-.67,2.33,2,1.4,3.17,1.76,1.77.49,2.57,1.66,4.68,1.25,3.35-.64,3.41-5.86,7.34-5.24,2.59.41,2.62,2.94,4.25,4.05.94.66,2.79.62,4.44.4a69.86,69.86,0,0,0-15.2-22.07l-.45.29A39.46,39.46,0,0,1,300,170c-1.24.62-3-.19-4.19.42a12.34,12.34,0,0,0-2.55,2.43C290.68,177.06,298.38,175.85,300.59,176Zm20.55,19.89c-.64.06-1.33.1-2,.1-3.49,0-4.3-.95-6.74-3-2.18-1.86-4.42-2.75-7.39-2-2.41.64-4.09,3.07-6.94,2.78-1.12-4.29-6.66,1.73-6.79,4-.13,2.56.62,2.47-1.3,4.36-1.13,1.14-2.8,2.22-3.53,3.7s-.52,4.38-.76,6.1a21,21,0,0,0,.17,6.09c.75,5.6,5.38,5.86,10.35,6.58,1.05.15,2.66.73,3.76.38s.84-1,1.59-1.69a6.68,6.68,0,0,1,5.4-1.57c1.49.22,5.1,2.27,4.79,4.13-.24,1.47-3,2.52-2.39,4.58,1.06,3.46,6.29,2.41,6.1,6.31a18.49,18.49,0,0,1-1,5.69c-.64,1.47-3.1,2.82-3.36,4-.36,1.55,1.55,1.62,1.82,3.06a9.55,9.55,0,0,0,4.08-.66,70.11,70.11,0,0,0,4.23-52.92Z" fill="#c2c199"/></g></g></svg>