<svg xmlns="http://www.w3.org/2000/svg" viewBox="0 0 512 512"><title>calendar-flat</title><g style="isolation:isolate"><g id="Layer_1" data-name="Layer 1"><path d="M496.92,256c0,133.07-107.86,240.93-240.92,240.93S15.08,389.06,15.08,256,122.94,15.08,256,15.08,496.92,122.94,496.92,256Z" fill="#e0dfb1"/><path d="M256,15.08c133.06,0,240.92,107.86,240.92,240.92S389.06,496.92,256,496.92,15.08,389.06,15.08,256,122.94,15.08,256,15.08M256,0C114.84,0,0,114.84,0,256S114.84,512,256,512,512,397.15,512,256,397.16,0,256,0Z" fill="#fff"/><path d="M149.84,361.84,304.14,492.1A241.05,241.05,0,0,0,495,286L362.16,169Z" fill="#c2c199"/><path d="M314.43,158.7s24,118.87,33.27,14.83L323.28,152Z" fill="#c2c199"/><rect x="149.84" y="168.99" width="212.33" height="192.85" fill="#fff"/><circle cx="192.55" cy="185.32" r="7.54" fill="#e0dfb1"/><circle cx="319.45" cy="185.32" r="7.54" fill="#c2c199"/><path d="M198.52,157.27c0-3.92-2.69-7.12-6-7.12s-6,3.21-6,7.12v23.45c0,3.92,2.69,7.12,6,7.12s6-3.21,6-7.12Z" fill="#fff"/><path d="M325.41,157.27c0-3.92-2.68-7.13-6-7.13s-6,3.21-6,7.13v23.45c0,3.92,2.68,7.12,6,7.12s6-3.2,6-7.12Z" fill="#fff"/><path d="M221.24,230.22H221l-15.48,8-3.1-14.5,21-10.84h16.19v91.47h-18.3Z" fill="#e0dfb1"/><path d="M307.36,229h-24.2L281,245.41a16.54,16.54,0,0,1,2.67-.14c3.94.14,12,2,17.31,6.89,5.06,4.93,7.88,11.82,7.88,21.1,0,17.74-11.82,32.22-31.8,32.22-6.47,0-13.51-1.69-17.17-3.65l2.81-14.5a32,32,0,0,0,13.09,3.09c9,0,14.91-5.76,14.91-15.48,0-12.38-9.29-16.46-19.84-16.46a47.1,47.1,0,0,0-6.61.28l5.2-45.88h37.85Z" fill="#e0dfb1"/><path d="M316.06,349.28H149.84a2.51,2.51,0,0,1,0-5H312.78l11.31-25.76H349V175.27a2.51,2.51,0,1,1,5,0V323.53H327.37Z" fill="#e0dfb1"/><path d="M325.41,169V157.27c0-3.92-2.68-7.13-6-7.13s-6,3.21-6,7.13V169H250.66V361.84h111.5V169Z" fill="#d1d1d1" style="mix-blend-mode:multiply"/></g></g></svg>